<svg id="Layer_1" data-name="Layer 1" xmlns="http://www.w3.org/2000/svg" viewBox="0 0 89.21 96.49"><defs><style>.cls-1{opacity:0.6;}.cls-2{fill:#fff;}</style></defs><title>BM-white</title><g class="cls-1"><polygon class="cls-2" points="67.93 21.17 62.38 15.62 56.83 21.48 62.38 27.03 67.93 21.17"/><polygon class="cls-2" points="76.78 5.55 71.23 0 65.68 5.86 71.23 11.41 76.78 5.55"/><path class="cls-2" d="M89,90.64V42.95H82.32V47.8h-8V38.6H77.5V32.46H51.82V38.6H55v9.2H44.48V25.14h3.15V19H22v6.14h3.22V47.8H17.25V44.18H10.58V90.64H4.79v7.08H94V90.64H89Zm-21.73-52V69.18l-2.57,1.63-2.57-1.63V38.6h5.15ZM37.4,25.14V68.59l-2.57,1.63-2.57-1.63V25.14H37.4ZM17.25,54.88h7.92v17.6l9.65,6.1,9.65-6.1V54.88H55v18.2l9.65,6.1,9.65-6.1V54.88h8V90.64H17.25V54.88Z" transform="translate(-4.79 -1.23)"/></g></svg>