<svg id="Layer_1" data-name="Layer 1" xmlns="http://www.w3.org/2000/svg" viewBox="0 0 38.29 96.78"><defs><style>.cls-1{opacity:0.6;}.cls-2{fill:#fff;}</style></defs><title>BT-white</title><g class="cls-1"><polygon class="cls-2" points="10.44 50.9 0 60.22 0 96.78 7.01 96.78 7.01 63.36 15.69 55.61 10.44 50.9"/><polygon class="cls-2" points="31.28 0 31.28 32.28 22.63 40.27 27.61 45.21 38.29 35.42 38.29 0 31.28 0"/><polygon class="cls-2" points="17.67 38.71 25.12 32.1 7.01 32.11 7.01 25.55 28.4 25.55 28.4 18.95 7.01 18.95 7.01 12.4 28.4 12.4 28.4 5.8 7.01 5.8 7.01 0 0 0 0 35.42 24.35 57.17 20.28 57.17 12.84 63.77 31.28 63.77 31.28 70.27 10.53 70.27 10.53 76.88 31.28 76.88 31.28 83.81 10.01 83.81 10.01 90.41 31.28 90.41 31.28 96.78 38.29 96.78 38.29 60.22 14.2 38.71 17.67 38.71"/></g></svg>