<?xml version="1.0" encoding="utf-8"?>
<!-- Generator: Adobe Illustrator 19.2.1, SVG Export Plug-In . SVG Version: 6.00 Build 0)  -->
<svg version="1.1" id="Layer_1" xmlns="http://www.w3.org/2000/svg" xmlns:xlink="http://www.w3.org/1999/xlink" x="0px" y="0px"
	 viewBox="0 0 100 100" style="enable-background:new 0 0 100 100;" xml:space="preserve">
<style type="text/css">
	.st0{opacity:0.6;}
	.st1{fill:#9BDAF1;}
</style>
<title>CT-yellow</title>
<g class="st0">
	<polygon class="st1" points="56.4,79 51.7,74.3 47.1,79.3 51.7,83.9 	"/>
	<path class="st1" d="M26.5,97.8l47-0.2L59.1,63.5l0.1-14.8H63v-5.8H52.8v-4.4l5.9-17.4L48.1,6.6L27.9,2.2l4.8,31.9l14.2,3.8v5H37
		v5.8h3.3l0.2,14.8L26.5,97.8z M34.4,9.2L45,11.5l7.7,10.6l-2.1,6.1l-2.2-6.6l-4-5.4l-6.7,0.1l5.4,7.2l-4.5,1.6l6.2,2.6l1.4,4.4
		l-8.7-2.3L34.4,9.2z M53.3,48.6l-0.2,16l11.4,27.1H49.4l-4.8-4.5l-4.5,4.5h-4.7l11-27.2l-0.2-16L53.3,48.6L53.3,48.6z"/>
</g>
</svg>
