<svg id="Layer_1" data-name="Layer 1" xmlns="http://www.w3.org/2000/svg" viewBox="0 0 96.33 89.51"><defs><style>.cls-1{opacity:0.6;}.cls-2{fill:#fff;}</style></defs><title>EW-white</title><g class="cls-1"><polygon class="cls-2" points="52.75 37.17 48.22 32.64 43.68 37.43 48.22 41.97 52.75 37.17"/><path class="cls-2" d="M34.22,67.71H65.55V51.84H34.22V67.71ZM40,57.63H59.76v4.29H40V57.63Z" transform="translate(-1.67 -6.43)"/><path class="cls-2" d="M98,39.24L92.75,36.8,90,42.67H84.37l-3.7-6-4.92,3.05,5.4,8.69h2.68V60H75.26V52.1L66.18,31H52.78v-5l8-8.49-11-11L39,17.92l8,8v5H33.58L24.51,52.1v10H15.84V50.56h2.68l5.4-8.69L19,38.82l-3.7,6H9.64L6.92,38.9,1.67,41.34,6,50.56h4.1V67.93H24.51v9.43h8.33l5.22,18.59H61.7l5.22-18.59h8.33V65.83H89.62V48.46h4.1ZM49.94,14.73l2.8,2.8L49.83,20.6,47,17.81ZM39.08,78.18h8.08v12H42.45Zm18.23,12H52.95v-12h7.73ZM69.47,71.57H30.3V53.29l7.1-16.55h25l7.1,16.55V71.57Z" transform="translate(-1.67 -6.43)"/></g></svg>