<svg id="Layer_1" data-name="Layer 1" xmlns="http://www.w3.org/2000/svg" viewBox="0 0 94.34 82.64"><defs><style>.cls-1{fill:#fff;}</style></defs><title>I-white</title><path class="cls-1" d="M86.72,54.13V33.75L96.84,23.63,82.45,10,68.68,23.77,79.47,34v12.9H53.33V31h6V11.12H39.4V31H46.5V46.87H19.55V34.74L30.66,23.63,16.27,10,2.5,23.77,12.29,33V54.13H46.5V66.5H16.87V92.65H83V66.5H53.33V54.13H86.72Zm-4.13-34,3.85,3.65-3.5,3.5-3.85-3.65ZM46.66,18.38H52v5.37H46.66V18.38ZM16.41,20.12l3.85,3.65-3.5,3.5L12.9,23.63ZM75.7,85.39H24.12V73.75H75.7V85.39Z" transform="translate(-2.5 -10.01)"/></svg>