<svg id="Layer_1" data-name="Layer 1" xmlns="http://www.w3.org/2000/svg" viewBox="0 0 86.25 96.99"><defs><style>.cls-1{opacity:0.6;}.cls-2{fill:#fff;}</style></defs><title>IT-white</title><g class="cls-1"><path class="cls-2" d="M93.5,36.14V2H7.25V36.14H45.47v9.78H7.25V80H45.92v9.88l-38.67.16V99H93.5V90.08l-38.67-.16V80H93.5V45.92H54.39V36.14H93.5ZM84,70.58H16.72V55.39H84V70.58ZM16.72,11.48H84V26.67H16.72V11.48Z" transform="translate(-7.25 -2.01)"/><rect class="cls-2" x="19.16" y="13.46" width="7.8" height="7.8"/><rect class="cls-2" x="38.78" y="13.46" width="7.8" height="7.8"/><rect class="cls-2" x="58.4" y="13.46" width="7.8" height="7.8"/><rect class="cls-2" x="19.16" y="57.07" width="7.8" height="7.8"/><rect class="cls-2" x="38.78" y="57.07" width="7.8" height="7.8"/><rect class="cls-2" x="58.4" y="57.07" width="7.8" height="7.8"/></g></svg>