<?xml version="1.0" encoding="utf-8"?>
<!-- Generator: Adobe Illustrator 19.2.1, SVG Export Plug-In . SVG Version: 6.00 Build 0)  -->
<svg version="1.1" id="Layer_1" xmlns="http://www.w3.org/2000/svg" xmlns:xlink="http://www.w3.org/1999/xlink" x="0px" y="0px"
	 viewBox="0 0 50 50" style="enable-background:new 0 0 50 50;" xml:space="preserve">
<style type="text/css">
	.st0{fill:#323A45;}
</style>
<g>
	<path class="st0" d="M18.9,38.1c0,0.6-0.3,1.1-0.9,1.1c-0.2,0-0.4-0.1-0.6-0.2l-8.7-4.4c-0.5-0.3-0.9-0.9-0.9-1.5V11.8
		c0-0.5,0.2-0.9,0.7-0.9c0.3,0,0.6,0.2,0.8,0.3l9.6,4.8c0,0,0.1,0.1,0.1,0.1V38.1z M30.1,34.2l-10-5V17.9L30.1,34.2z M30.8,33.1
		l-7.3-11.9l6.1-9.9c0.2-0.3,0.6-0.5,1-0.5c0.2,0,0.3,0,0.5,0.1l10.2,5.1c0,0,0.1,0.1,0.1,0.1C41.2,16.1,31.5,31.9,30.8,33.1z
		 M41.3,38.1c0,0.6-0.4,1.1-1,1.1c-0.3,0-0.6-0.1-0.9-0.2l-8.3-4.1l10.1-16.5V38.1z"/>
</g>
</svg>
