<svg id="Layer_1" data-name="Layer 1" xmlns="http://www.w3.org/2000/svg" viewBox="0 0 100 100"><defs><style>.cls-1{opacity:0.6;}.cls-2{fill:#fff;}</style></defs><title>mi-white</title><g class="cls-1"><polygon class="cls-2" points="30.8 35.7 26.6 40 30.8 44.2 34.9 39.8 30.8 35.7"/><path class="cls-2" d="M88.4,28.8l-10,10.4,10.1,9.9,10-10.4Zm0,12.7L85.8,39l2.7-2.8,2.6,2.5Z"/><path class="cls-2" d="M50.2,30h0V23H44.9v5.5l-12-3.3L6.7,29.8V50l3.8,0.7-9,15.7L18.4,77,29.7,54l3.2,0.6,11.9-3.3v5.5h5.3V49.9h0v-7h8.1V38H50.1V30h0.1ZM16.3,69.3L8.7,64.5l7.5-13,8.2,1.4ZM32.7,49.2L12,45.5V34.2l20.5-3.5L44.7,34V45.9Z"/><path class="cls-2" d="M58.2,30.9V50.3l15.7,6.1L73.8,24.8Zm5.4,15.8V34.3l5-1.9,0.1,16.2Z"/></g></svg>