<?xml version="1.0" encoding="utf-8"?>
<!-- Generator: Adobe Illustrator 19.2.1, SVG Export Plug-In . SVG Version: 6.00 Build 0)  -->
<svg version="1.1" id="Layer_1" xmlns="http://www.w3.org/2000/svg" xmlns:xlink="http://www.w3.org/1999/xlink" x="0px" y="0px"
	 viewBox="0 0 100 100" style="enable-background:new 0 0 100 100;" xml:space="preserve">
<style type="text/css">
	.st0{opacity:0.6;}
	.st1{fill:none;stroke:#323A45;stroke-width:0.2;stroke-miterlimit:10;}
</style>
<g class="st0">
	<polygon class="st1" points="30.5,36.4 26.3,40.8 30.5,44.9 34.6,40.5 	"/>
	<path class="st1" d="M88.1,29.5l-10,10.4l10.1,9.9l10-10.4L88.1,29.5z M88.1,42.3l-2.6-2.5l2.7-2.8l2.6,2.5L88.1,42.3z"/>
	<path class="st1" d="M49.9,30.7L49.9,30.7v-6.9h-5.3v5.5l-12-3.3L6.4,30.5v20.2l3.8,0.7l-9,15.7l16.9,10.6l11.3-23l3.2,0.6L44.5,52
		v5.5h5.3v-6.9l0,0v-7h8.1v-4.9h-8.1L49.9,30.7L49.9,30.7z M16,70.1l-7.6-4.8l7.5-13l8.2,1.4L16,70.1z M32.4,49.9l-20.7-3.6V34.9
		l20.5-3.5l12.2,3.3v11.9L32.4,49.9z"/>
	<path class="st1" d="M57.9,31.6V51l15.7,6.1l-0.1-31.6L57.9,31.6z M63.3,47.4V35.1l5-1.9l0.1,16.2L63.3,47.4z"/>
</g>
</svg>
