<svg id="Layer_1" data-name="Layer 1" xmlns="http://www.w3.org/2000/svg" viewBox="0 0 99.09 89.15"><defs><style>.cls-1{fill:#fff;opacity:0.6;}</style></defs><title>MN-white</title><path class="cls-1" d="M100,25.05V18.3H95.28l-4-6.93,2.44-4.11-5.8-3.45-0.8,1.35h0L85.53,7.82H76.41L74.65,3.77,68.83,7.17l1.78,4.1-3.44,7H60l-4-6.93,2.44-4.11-5.8-3.45-2.38,4H41.79L39.42,3.77,33.59,7.17l2.4,4.1-4.05,7H16.54L0.91,45.37,14.72,69.3,1.53,89.18l5.62,3.73L20.73,72.46H47.81L63.45,45.37,55.73,32l4.31-7h7.13l4,6.93-1.64,2.76h0l-0.8,1.35,5.8,3.45,0.8-1.35h0l1.58-2.65h8.51l2.37,4.05,5.83-3.41-2.4-4.1,4.06-7H100ZM51.32,37.87l-10.1,3.4L30.34,35.1,30.26,25H43.92Zm-7.4,27.84H20.44L8.7,45.37,20.44,25h3.07l0.08,9.45-8,4.56L19,44.91l7.47-4.27,9.83,5.57-2,9.25,6.6,1.4,1.91-9,11.95-4,0.89,1.55Zm3.9-47.41H39.73l2.15-3.72h8.21l4.1,7.11L52,25.44ZM73,21.68l3.49-7.11h8.82l4.1,7.11-4.1,7.11H77.12Z" transform="translate(-0.91 -3.77)"/></svg>