<svg id="Layer_1" data-name="Layer 1" xmlns="http://www.w3.org/2000/svg" viewBox="0 0 94.82 78.2"><defs><style>.cls-1{fill:#fff;opacity:0.6;}</style></defs><title>SH-white</title><polygon class="cls-1" points="68.5 0 52.31 16.64 36.13 0 9.8 8.08 9.8 33.31 14.12 37.87 17.75 28.03 17.75 13.95 33.81 9.02 52.31 28.03 70.81 9.02 86.88 13.95 86.88 30.14 77.07 40.5 40.9 40.52 37 49.42 26.88 14.73 16.5 45.34 0 45.34 0 53.29 22.2 53.29 26.31 41.16 35.5 72.67 46.09 48.47 69.52 48.47 52.31 66.64 46.11 60.08 42.33 67.66 52.31 78.2 94.82 33.31 94.82 8.08 68.5 0"/></svg>