<?xml version="1.0" encoding="utf-8"?>
<!-- Generator: Adobe Illustrator 19.2.1, SVG Export Plug-In . SVG Version: 6.00 Build 0)  -->
<svg version="1.1" id="Layer_1" xmlns="http://www.w3.org/2000/svg" xmlns:xlink="http://www.w3.org/1999/xlink" x="0px" y="0px"
	 viewBox="0 0 100 100" style="enable-background:new 0 0 100 100;" xml:space="preserve">
<style type="text/css">
	.st0{opacity:0.6;}
	.st1{fill:#FFF79C;}
</style>
<title>SP-yellow</title>
<g class="st0">
	<path class="st1" d="M49.2,53.8h12.3v-7H49.2l-4.1-7l6.3-10.9l-6.1-3.5l-6.3,11h-8l0.2-0.1L24.7,25l-6.1,3.5l6.5,11.2l0,0l-3.7,6.6
		H8.1v7h12.7l3.9,6.8h-0.1l-6.5,11.1l6.1,3.5l6.1-10.6h8.2L44.9,75l6.1-3.5L45,61L49.2,53.8z M27.2,50.3l4-6.9h8l4,6.9l-4,6.9h-8
		L27.2,50.3z"/>
	<rect x="31.3" y="12.5" class="st1" width="7" height="18.7"/>
	<rect x="7.5" y="26.1" transform="matrix(0.5 -0.866 0.866 0.5 -25.5869 27.5077)" class="st1" width="7" height="19.6"/>
	<rect x="1.7" y="60.1" transform="matrix(0.866 -0.5 0.5 0.866 -30.3055 14.0796)" class="st1" width="18.8" height="7"/>
	<rect x="31.3" y="68.7" class="st1" width="7" height="18.8"/>
	<rect x="55.4" y="54.8" transform="matrix(0.5 -0.866 0.866 0.5 -26.1989 83.1445)" class="st1" width="7" height="19"/>
	<rect x="49.9" y="32.8" transform="matrix(0.866 -0.5 0.5 0.866 -10.1236 34.7325)" class="st1" width="19.7" height="7"/>
	<rect x="67.2" y="46.8" class="st1" width="6.9" height="6.9"/>
	<rect x="80.2" y="46.8" class="st1" width="6.9" height="6.9"/>
	<rect x="92.3" y="46.8" class="st1" width="6.9" height="6.9"/>
</g>
</svg>
