<?xml version="1.0" encoding="utf-8"?>
<!-- Generator: Adobe Illustrator 19.2.1, SVG Export Plug-In . SVG Version: 6.00 Build 0)  -->
<svg version="1.1" id="Layer_1" xmlns="http://www.w3.org/2000/svg" xmlns:xlink="http://www.w3.org/1999/xlink" x="0px" y="0px"
	 viewBox="0 0 100 100" style="enable-background:new 0 0 100 100;" xml:space="preserve">
<style type="text/css">
	.st0{opacity:0.6;}
	.st1{fill:none;stroke:#323A45;stroke-width:0.25;stroke-miterlimit:10;}
</style>
<g class="st0">
	<path class="st1" d="M49.2,53.5h12.3v-7H49.2l-4.1-7.1l6.3-10.9L45.4,25L39,36H31l0.2-0.1l-6.5-11.2l-6.1,3.5l6.5,11.2l0,0L21.4,46
		H8.2v7h12.7l3.9,6.8l-0.1,0l-6.5,11.2l6.1,3.5l6.1-10.6h8.2l6.2,10.8l6.1-3.5l-6-10.4L49.2,53.5z M27.2,50l4-6.9h8l4,6.9l-4,6.9h-8
		L27.2,50z"/>
	<rect x="31.3" y="12.2" class="st1" width="7" height="18.7"/>
	<rect x="7.5" y="25.8" transform="matrix(0.5 -0.866 0.866 0.5 -25.2967 27.3731)" class="st1" width="7" height="19.6"/>
	<rect x="1.7" y="59.8" transform="matrix(0.866 -0.5 0.5 0.866 -30.1489 14.0364)" class="st1" width="18.8" height="7"/>
	<rect x="31.3" y="68.4" class="st1" width="7" height="18.8"/>
	<rect x="55.4" y="54.5" transform="matrix(0.5 -0.866 0.866 0.5 -25.9716 82.9997)" class="st1" width="7" height="19"/>
	<rect x="49.9" y="32.5" transform="matrix(0.866 -0.5 0.5 0.866 -10.0003 34.681)" class="st1" width="19.7" height="7"/>
	<rect x="67.2" y="46.5" class="st1" width="6.9" height="6.9"/>
	<rect x="80.2" y="46.5" class="st1" width="6.9" height="6.9"/>
	<rect x="92.3" y="46.5" class="st1" width="6.9" height="6.9"/>
</g>
</svg>
