<?xml version="1.0" encoding="utf-8"?>
<!-- Generator: Adobe Illustrator 19.2.1, SVG Export Plug-In . SVG Version: 6.00 Build 0)  -->
<svg version="1.1" id="Layer_1" xmlns="http://www.w3.org/2000/svg" xmlns:xlink="http://www.w3.org/1999/xlink" x="0px" y="0px"
	 viewBox="0 0 501.8 122.7" style="enable-background:new 0 0 501.8 122.7;" xml:space="preserve">
<style type="text/css">
	.st0{fill:#0071BC;}
	.st1{fill:#112E51;}
	.st2{fill:none;stroke:#112E51;stroke-width:2;stroke-miterlimit:10;}
</style>
<g>
	<path class="st0" d="M146.3,118.4c0.7,1.1,1.5,1.6,3.1,1.6c1.3,0,1.9-0.5,1.9-1.5c0-0.8-0.4-1.2-1.5-1.5c-2.6-0.6-3.1-0.8-3.9-1.3
		c-1.2-0.8-1.7-1.9-1.7-3.5c0-3,1.8-4.5,5.2-4.5c2.5,0,4.1,0.8,5.2,2.6l-2.7,1.7c-0.7-1-1.4-1.4-2.5-1.4c-1,0-1.6,0.5-1.6,1.3
		c0,1,0.6,1.4,2.5,1.9c1.9,0.5,2.3,0.6,3.1,1.1c1,0.7,1.5,1.7,1.5,3.4c0,1.6-0.4,2.7-1.2,3.4c-0.9,0.8-2.4,1.2-4.2,1.2
		c-1.7,0-3.3-0.4-4.3-1.1c-0.7-0.4-1.1-0.9-1.5-1.7L146.3,118.4z"/>
	<path class="st0" d="M158.9,108h5.9c1.9,0,2.8,0.2,3.6,0.9c0.8,0.7,1.2,1.8,1.2,3.2c0,1.4-0.4,2.3-1.1,2.9c1,0.9,1.3,1.8,1.3,3.5
		c0,1.6-0.5,2.7-1.4,3.4c-0.8,0.6-1.7,0.8-3.4,0.8h-6.2V108z M164.6,113.8c1.1,0,1.5-0.4,1.5-1.5c0-1.1-0.4-1.4-1.5-1.4h-2v2.9
		H164.6z M164.8,119.8c1.1,0,1.4-0.4,1.4-1.6c0-1.2-0.4-1.5-1.4-1.5h-2.3v3.1H164.8z"/>
	<path class="st0" d="M174,108h3.7v14.7H174V108z"/>
	<path class="st0" d="M186.4,122.7h-3.7V108h5.8c2.1,0,3.1,0.3,3.9,1.1c0.8,0.8,1.1,1.8,1.1,3.4c0,2.5-0.7,3.7-2.5,4.3l3.2,6h-4.1
		l-2.7-5.7h-1V122.7z M188.1,114.2c1.3,0,1.7-0.4,1.7-1.7c0-1.3-0.4-1.7-1.7-1.7h-1.8v3.3H188.1z"/>
	<path class="st0" d="M197.7,119.5h3.7v3.2h-3.7V119.5z"/>
	<path class="st0" d="M207.5,118.4c0.7,1.1,1.5,1.6,3.1,1.6c1.3,0,1.9-0.5,1.9-1.5c0-0.8-0.4-1.2-1.5-1.5c-2.6-0.6-3.1-0.8-3.9-1.3
		c-1.2-0.8-1.7-1.9-1.7-3.5c0-3,1.8-4.5,5.2-4.5c2.5,0,4.1,0.8,5.2,2.6L213,112c-0.7-1-1.4-1.4-2.5-1.4c-1,0-1.6,0.5-1.6,1.3
		c0,1,0.6,1.4,2.5,1.9c1.9,0.5,2.3,0.6,3.1,1.1c1,0.7,1.5,1.7,1.5,3.4c0,1.6-0.4,2.7-1.2,3.4c-0.9,0.8-2.4,1.2-4.2,1.2
		c-1.7,0-3.3-0.4-4.3-1.1c-0.7-0.4-1.1-0.9-1.5-1.7L207.5,118.4z"/>
	<path class="st0" d="M223.2,110.9h-3.8v-3h11.3v3h-3.8v11.8h-3.7V110.9z"/>
	<path class="st0" d="M237.7,110.9h-3.8v-3h11.3v3h-3.8v11.8h-3.7V110.9z"/>
	<path class="st0" d="M252.9,122.7h-3.7V108h5.8c2.1,0,3.1,0.3,3.9,1.1c0.8,0.8,1.1,1.8,1.1,3.4c0,2.5-0.7,3.7-2.5,4.3l3.2,6h-4.1
		l-2.7-5.7h-1V122.7z M254.6,114.2c1.3,0,1.7-0.4,1.7-1.7c0-1.3-0.4-1.7-1.7-1.7h-1.8v3.3H254.6z"/>
</g>
<g>
	<path class="st0" d="M152.9,28.4c-0.6,1.3-1.2,2.9-1.6,4c-0.1,0.4-0.2,0.5-0.8,0.5c-3.1,0-4.7,0-7.8,0c-0.4,0-0.4-0.2-0.2-0.7
		c4.9-10.4,11.7-24.2,16-32.2c0-0.1,1.1-0.1,1.1,0c4.5,8.8,10.9,21.8,16.1,32.2c0.3,0.6,0.2,0.7-0.2,0.7c-2.3,0-5.2,0-8.8,0
		c-0.2,0-0.4,0-0.6-0.4c-0.6-1.3-1.3-3-1.7-4.2H152.9z M161.8,22.3l-3.3-7.1l-3.2,7.1H161.8z"/>
	<path class="st0" d="M200.2,13.1c0.8-2.9,3.8-4.5,7.1-4.5c3.8,0,7.4,1.4,7.4,7.5v16.2c0,0.6,0,0.7-0.4,0.7c-2.6,0-4.5,0-7.1,0
		c-0.3,0-0.4,0-0.4-0.5V19c0-2.3-0.9-3.7-3-3.7c-1.7,0-2.9,1.1-3.2,2.1v14.8c0,0.6,0,0.7-0.4,0.7c-2.6,0-4.5,0-7.1,0
		c-0.3,0-0.4,0-0.4-0.5V19c0-2.6-1.3-3.7-3-3.7c-1.7,0-3,1.2-3.2,2.1v15c0,0.4,0,0.5-0.3,0.5c-2.5,0-4.7,0-7.3,0
		c-0.3,0-0.4,0-0.4-0.7c0-8.6,0-13.8,0-22.5c0-0.6,0-0.6,0.3-0.6c2.5,0,4.6,0,7,0c0.4,0,0.4,0,0.4,0.6v3.2c1-2.7,3.6-4.5,7-4.5
		C196.9,8.6,199.2,9.9,200.2,13.1z"/>
	<path class="st0" d="M241.9,19.4c0,1.6-0.1,2.4-0.3,3.2c-0.1,0.5-0.2,0.6-0.9,0.6c-4.1,0-14,0-14,0c0,2.5,2,4.1,4.8,4.1
		c2.2,0,3.7-1.4,4.5-2.3c0.1-0.2,0.4-0.1,0.7,0.2c1,1.4,2.3,3.2,3.2,4.7c0.3,0.4,0.1,0.8-0.2,1.1c-1.5,1.3-4.7,2.8-8.3,2.8
		c-7.1,0-12.4-4.7-12.4-12.7c0-7.1,4.7-12.4,12.4-12.4C237,8.7,241.9,12.7,241.9,19.4z M234.5,19c-0.2-2.5-1.6-4-4-4
		c-2.6,0-3.7,2-3.9,4H234.5z"/>
	<path class="st0" d="M253.4,18.1v14.4c0,0.4-0.1,0.5-0.4,0.5c-2.6,0-4.5,0-7.2,0c-0.3,0-0.4,0-0.4-0.7c0-8.6,0-13.8,0-22.5
		c0-0.6,0-0.6,0.4-0.6c2.7,0,4.4,0,7,0c0.3,0,0.4,0,0.4,0.6v2.3c1-2.3,3.6-3.6,5.6-3.6c3.5,0,5.9,1.9,6,5.7c-1,1-4.3,4.5-4.9,5
		c-0.2,0.2-0.7,0.3-1.2,0.3c0-2.1-0.9-3.2-2.6-3.2C254.7,16.3,253.9,17.2,253.4,18.1z"/>
	<path class="st0" d="M275.8,6.1c0,0.4-0.1,0.5-0.4,0.5c-2.6,0-4.5,0-7.2,0c-0.3,0-0.4-0.3-0.4-0.6V1.1c0-0.3,0-0.6,0.3-0.6
		c2.4,0,5.1,0,7.2,0c0.4,0,0.5,0,0.5,0.6V6.1z M275.8,32.5c0,0.4-0.1,0.5-0.4,0.5c-2.6,0-4.5,0-7.2,0c-0.3,0-0.4,0-0.4-0.7
		c0-8.6,0-13.8,0-22.5c0-0.6,0-0.6,0.3-0.6c2.7,0,4.6,0,7.2,0c0.4,0,0.5,0,0.5,0.6V32.5z"/>
	<path class="st0" d="M303.4,26.2c0.3,0.2,0.4,0.5,0.3,0.8c-2.1,4.3-5.6,6.8-11,6.8c-7.4,0-12.6-4.8-12.6-12.4
		c0-7.2,5-12.8,12.5-12.8c5.2,0,9.3,2.3,11.1,7c0.1,0.4,0,0.6-0.3,0.7l-6.2,2.6c-0.2,0-0.3,0-0.4-0.3c-0.6-1.4-2.4-2.3-4.1-2.3
		c-3.1,0-4.8,2.1-4.8,5c0,3,2.1,4.9,4.9,4.9c1.9,0,3.5-1.1,4-2.3c0.1-0.3,0.3-0.4,0.7-0.2L303.4,26.2z"/>
	<path class="st0" d="M323.3,29.6c-0.8,2.4-3.8,3.7-6.6,3.7c-6.3,0-11.1-4.5-11.1-12.2c0-7.1,5-12.1,10.9-12.1
		c3.2,0,5.6,1.9,6.3,3.7V9.8c0-0.4,0.1-0.6,0.4-0.6c2.7,0,4.6,0,7.2,0c0.2,0,0.3,0.2,0.3,0.4c0,9,0,14,0,22.6c0,0.5-0.1,0.7-0.4,0.7
		c-1.3,0-5.9,0-6.7,0c-0.3,0-0.5-0.2-0.5-0.4V29.6z M313.4,21.3c0,2.9,2.2,4.8,4.8,4.8c2.6,0,4.7-2,4.7-4.9c0-3.1-2.1-4.9-4.7-4.9
		C315.3,16.3,313.4,18.4,313.4,21.3z"/>
	<path class="st0" d="M338,14.2c-0.1,0.2-0.7,0.3-1.4,0.3c-0.8,0-1.2-0.4-1.2-0.7c0-5.8,0-6.6,0-12.2c0-0.5,0.1-0.5,0.3-0.5
		c3.4,0,6,0,8.6,0c0.3,0,0.2,1.1,0.1,1.3C341.9,7.2,340.3,9.6,338,14.2z"/>
	<path class="st0" d="M343,27.6l5.1-2c0.2,0,0.4,0,0.4,0.2c0.5,1.4,2.1,2.5,3.8,2.5c2.1,0,3.1-0.8,3.1-1.9c0-1.3-1-1.9-4.6-2.8
		c-4.5-1.1-7.6-2.7-7.6-7.4c0-4.9,4-7.7,10.6-7.7c5.2,0,8.3,2,9.3,5.1c0,0.3,0,0.6-0.2,0.7l-5.2,1.8c-0.3,0.1-0.3,0.1-0.5-0.1
		c-0.8-1.3-2-2.1-3.6-2.1c-1.8,0-2.6,0.6-2.6,1.6c0,0.9,1.1,1.4,5.1,2.2c4.7,1,7.9,3,7.9,7.4c0,5.3-3.9,8.7-10.8,8.7
		c-6,0-8.8-2.2-10.3-5.5C342.7,28,342.7,27.7,343,27.6z"/>
</g>
<path class="st1" d="M165,62.9c-0.9-0.1-1.7-0.3-2.3-0.3c-6.2-1-8.8-2.3-8.8-5.5c0-2.6,1.5-4.4,6.4-4.4c3.6,0,6.8,2.7,7.7,5.5
	c0.1,0.3,0.3,0.5,0.8,0.3l8.1-3.2c0.4-0.1,0.7-0.4,0.5-1.2c-1.8-5.8-7.5-10.2-16.6-10.2c-12.2,0-18.4,6.3-18.4,15.3
	c0,8.6,5.8,13.3,14.2,14.1c0.5,0.1,1.2,0.1,1.7,0.2c6.4,0.8,8.4,2.6,8.4,5.4c0,3.2-2.2,4.6-7,4.6c-4.4,0-7.5-3-8.4-5.6
	c-0.1-0.6-0.1-0.6-0.8-0.3l-8.5,3.5c-0.5,0.2-0.6,0.6-0.3,1.3c2.3,6.8,8.2,10.6,17.6,10.6c10.8,0,19.6-4.7,19.6-15.3
	C179,68.9,173.8,64.2,165,62.9z"/>
<path class="st1" d="M217.9,81l-20.2,0.2v-8H217c0.6,0,0.7-0.1,0.7-1c0-2.8,0-5,0-8.4c0-0.8-0.1-1-0.7-1h-19.3V55l19.8,0.2
	c0.6,0,0.8-0.3,0.8-1c0-3,0-5,0-8.4c0-0.8-0.1-0.9-0.8-0.9h-31.2c-0.7,0-0.6,0.1-0.6,0.7c0,13.3,0,33.1,0,45.2c0,0.8,0.1,1,0.8,1
	h31.6c0.7,0,0.8-0.1,0.8-1c0-2.8,0-5.5,0-8.9C218.7,81,218.7,81,217.9,81z"/>
<path class="st1" d="M261.1,81l-20.2,0.2v-8h19.3c0.6,0,0.7-0.1,0.7-1c0-2.8,0-5,0-8.4c0-0.8-0.1-1-0.7-1h-19.3V55l19.8,0.2
	c0.6,0,0.8-0.3,0.8-1c0-3,0-5,0-8.4c0-0.8-0.1-0.9-0.8-0.9h-31.2c-0.7,0-0.6,0.1-0.6,0.7c0,13.3,0,33.1,0,45.2c0,0.8,0.1,1,0.8,1
	h31.6c0.7,0,0.8-0.1,0.8-1c0-2.8,0-5.5,0-8.9C261.8,81,261.8,81,261.1,81z"/>
<path class="st1" d="M290.7,44.9h-19.2c-0.5,0-0.6,0.1-0.6,0.7c0,8.6,0,15.6,0,22.5c0,7.1,0,14.2,0,23c0,0.7,0.1,0.6,0.6,0.6h17.6
	c13.7,0,22.8-8.4,22.8-23.4C311.9,53.1,304,44.9,290.7,44.9z M289.5,81.8h-6.4V54.7h6.5c6,0,9.4,5.9,9.4,13.4
	C299,76.2,296.4,81.8,289.5,81.8z"/>
<path class="st1" d="M364.5,44.9h-30.3c-0.5,0-0.6,0.1-0.6,0.9c0,15.3,0,31.8,0,45c0,1,0.1,1,0.6,1h11.3c0.6,0,0.6-0.2,0.6-1
	c0-5,0-15.3,0-15.3l16.3,0.1c0.6,0,0.9-0.1,1-0.8c0.2-3.3,0.1-6.4,0-9.3c0-0.6-0.3-0.8-0.9-0.8L346,65v-9.4l18.4,0.1
	c0.6,0,0.5-0.1,0.6-0.7c0.3-2.7,0.2-6.4,0-9.4C364.9,45.1,365,44.9,364.5,44.9z"/>
<path class="st1" d="M410.3,44.9c-3.7,0-8,0-11.3,0c-0.4,0-0.4,0.1-0.4,0.5v30.8c0,4.7-3.9,6.6-7.3,6.6c-3.4,0-7.3-1.9-7.3-6.6V45.5
	c0-0.6,0-0.6-0.5-0.6c-3.3,0-7.8,0-11.6,0c-0.3,0-0.3,0-0.3,0.4v28.7c0,11.4,6.4,18.9,19.5,18.9c13.7,0,19.5-7,19.5-18.2V45.4
	C410.6,44.9,410.6,44.9,410.3,44.9z"/>
<path class="st1" d="M480.6,44.9h-19.2c-0.5,0-0.6,0.1-0.6,0.7c0,8.6,0,15.6,0,22.5c0,7.1,0,14.2,0,23c0,0.7,0.1,0.6,0.6,0.6H479
	c13.7,0,22.8-8.4,22.8-23.4C501.8,53.1,493.9,44.9,480.6,44.9z M479.4,81.8H473V54.7h6.5c6,0,9.4,5.9,9.4,13.4
	C488.9,76.2,486.3,81.8,479.4,81.8z"/>
<path class="st1" d="M452.2,41.7c-5-4.2-7.6-6.2-11.7-9.1c-0.4-0.3-1-0.4-1,0.6c0,1,0,42.3,0,42.3c4.9,4.2,7.2,6.2,11.5,9.4
	c1,0.7,1.1,0.2,1.1-0.9C452.3,68.1,452.2,41.7,452.2,41.7z"/>
<path class="st1" d="M431.5,91.8c0-12.3,0-23.6,0-23.6c-5-4.2-7.6-6.2-11.7-9.1c-0.4-0.3-1-0.4-1,0.6c0,0.7,0,19.7,0,32.1H431.5z"/>
<line class="st2" x1="111.1" y1="0" x2="111.1" y2="92.6"/>
<g>
	<path class="st1" d="M18.6,52.8c1.7-0.2,2.5-0.4,2.5-2.3V36.9c-1.6-2-2.1-2.1-2.4-2.1v-0.7h6.1l10,12.3h0.1v-8.7
		c0-1.7-0.3-2.7-2.7-2.8v-0.7h6.2v0.7c-2.1,0.3-2.2,0.9-2.2,2.3V54h-0.8L22.5,38.5h-0.1V50c0,2.1,0.6,2.6,2.7,2.8v0.7h-6.5V52.8z"/>
	<path class="st1" d="M18.6,52.8c1.7-0.2,2.5-0.4,2.5-2.3V36.9c-1.6-2-2.1-2.1-2.4-2.1v-0.7h6.1l10,12.3h0.1v-8.7
		c0-1.7-0.3-2.7-2.7-2.8v-0.7h6.2v0.7c-2.1,0.3-2.2,0.9-2.2,2.3V54h-0.8L22.5,38.5h-0.1V50c0,2.1,0.6,2.6,2.7,2.8v0.7h-6.5V52.8z"/>
	<path class="st1" d="M52.1,39.9c-0.5-2-2.2-5.3-5.6-5.3c-1.5,0-3.1,0.9-3.1,2.7c0,1.6,0.5,2.2,3,3.4l4.2,2.1c1,0.5,3.2,2.2,3.2,5.3
		c0,2.5-1.8,6-7.1,6c-2.7,0-4-1-4.9-1c-0.6,0-0.7,0.5-0.9,1h-0.8V47h0.8c0.6,2.9,2.2,6.2,5.9,6.2c3.5,0,3.6-2.8,3.6-3.2
		c0-1.9-1.4-2.6-3.2-3.5l-1.9-0.9c-4.9-2.4-4.9-4.8-4.9-6.2c0-1.8,0.9-5.7,6.4-5.7c2.3,0,3.7,0.9,4.5,0.9c0.7,0,0.8-0.4,0.9-1h0.9
		v6.2H52.1z"/>
	<path class="st1" d="M52.1,39.9c-0.5-2-2.2-5.3-5.6-5.3c-1.5,0-3.1,0.9-3.1,2.7c0,1.6,0.5,2.2,3,3.4l4.2,2.1c1,0.5,3.2,2.2,3.2,5.3
		c0,2.5-1.8,6-7.1,6c-2.7,0-4-1-4.9-1c-0.6,0-0.7,0.5-0.9,1h-0.8V47h0.8c0.6,2.9,2.2,6.2,5.9,6.2c3.5,0,3.6-2.8,3.6-3.2
		c0-1.9-1.4-2.6-3.2-3.5l-1.9-0.9c-4.9-2.4-4.9-4.8-4.9-6.2c0-1.8,0.9-5.7,6.4-5.7c2.3,0,3.7,0.9,4.5,0.9c0.7,0,0.8-0.4,0.9-1h0.9
		v6.2H52.1z"/>
	<path class="st1" d="M55.4,34.1h16.3v5.8H71c-0.6-3-1.4-4.8-6.4-4.8c-1.6,0-2.1,0.1-2.1,1.4v6.7c3.6,0.1,4-2,4.4-4.3h0.7v9.7H67
		c-0.3-2.4-0.8-4.5-4.4-4.5v6.7c0,1.9,1.2,2,3.2,2v0.7H55.4v-0.7c1.6-0.2,2.5-0.3,2.5-2V36.8c0-1.9-1.2-2-2.5-2V34.1z"/>
	<path class="st1" d="M55.4,34.1h16.3v5.8H71c-0.6-3-1.4-4.8-6.4-4.8c-1.6,0-2.1,0.1-2.1,1.4v6.7c3.6,0.1,4-2,4.4-4.3h0.7v9.7H67
		c-0.3-2.4-0.8-4.5-4.4-4.5v6.7c0,1.9,1.2,2,3.2,2v0.7H55.4v-0.7c1.6-0.2,2.5-0.3,2.5-2V36.8c0-1.9-1.2-2-2.5-2V34.1z"/>
	<path class="st1" d="M45.2,14.1c-16.4,0-29.7,13.3-29.7,29.7c0,16.4,13.3,29.7,29.7,29.7c16.4,0,29.7-13.3,29.7-29.7
		C74.9,27.4,61.6,14.1,45.2,14.1 M45.2,73C29.1,73,16,59.9,16,43.9c0-16.1,13-29.1,29.1-29.1c16.1,0,29.1,13,29.1,29.1
		C74.3,59.9,61.3,73,45.2,73"/>
	<path class="st1" d="M45.2,14.1c-16.4,0-29.7,13.3-29.7,29.7c0,16.4,13.3,29.7,29.7,29.7c16.4,0,29.7-13.3,29.7-29.7
		C74.9,27.4,61.6,14.1,45.2,14.1z M45.2,73C29.1,73,16,59.9,16,43.9c0-16.1,13-29.1,29.1-29.1c16.1,0,29.1,13,29.1,29.1
		C74.3,59.9,61.3,73,45.2,73z"/>
	<path class="st1" d="M81,39.2c-0.3-0.7-0.5-1.4-0.7-2.1c-0.1-1.4-0.1-2.7-0.1-3.9c0.5-2.5,2.3-3.9,4.5-4.7
		c-0.3-0.6-0.6-1.4-0.8-1.9c-2.4,1.1-5.2,1.4-7.4-0.7c-0.5-0.5-0.9-1-1.3-1.5c-0.7-1.3-1.3-2.6-1.7-3.8c-0.5-2.5,0.7-4.5,2.4-6.1
		c-0.5-0.5-1.1-1.1-1.5-1.5c-1.8,2-4.3,3.3-7.1,2.2c-0.5-0.2-1.1-0.5-1.6-0.7c-1.2-0.9-2.3-2-3.2-3c-1.4-2.1-1.1-4.4-0.1-6.5
		c-0.6-0.3-1.4-0.6-1.9-0.8c-0.9,2.5-2.7,4.7-5.7,4.7c-0.9,0-1.8-0.1-2.7-0.2c-1.1-0.4-2.2-0.8-3.2-1.2c-2.2-1.4-2.7-3.6-2.6-6
		c-0.7,0-1.5,0-2.1,0c0.2,2.6-0.7,5.3-3.4,6.6c-0.6,0.2-1.2,0.5-1.9,0.7c-1.5,0.2-2.9,0.2-4.2,0.1c-2.5-0.5-3.9-2.3-4.7-4.5
		c-0.6,0.3-1.4,0.6-1.9,0.8c1.1,2.4,1.4,5.2-0.7,7.4c-0.5,0.5-1.1,1-1.7,1.5c-1.3,0.7-2.6,1.2-3.7,1.7c-2.5,0.5-4.5-0.7-6.1-2.4
		c-0.5,0.5-1.1,1.1-1.5,1.5c2,1.8,3.2,4.3,2.2,7.1c-0.3,0.6-0.5,1.1-0.8,1.7c-0.9,1.1-1.9,2.1-2.8,3c-2.1,1.4-4.4,1.1-6.5,0.1
		c-0.3,0.6-0.6,1.4-0.8,1.9c2.5,0.9,4.7,2.7,4.7,5.7c0,0.8-0.1,1.6-0.1,2.3c-0.4,1.3-0.9,2.5-1.4,3.6c-1.4,2.2-3.6,2.7-6,2.6
		c0,0.7,0,1.5,0,2.1c2.6-0.2,5.3,0.7,6.6,3.4c0.2,0.6,0.5,1.3,0.7,1.9c0.2,1.5,0.2,2.9,0.1,4.2c-0.5,2.5-2.3,3.9-4.5,4.7
		c0.3,0.6,0.6,1.4,0.8,1.9c2.4-1.1,5.2-1.4,7.4,0.7c0.5,0.5,1,1.1,1.5,1.6c0.7,1.3,1.2,2.6,1.7,3.7c0.5,2.5-0.7,4.5-2.4,6.1
		c0.5,0.5,1.1,1.1,1.5,1.5c1.8-2,4.3-3.2,7.1-2.2c0.6,0.3,1.2,0.6,1.8,0.9c1.1,0.9,2.1,1.9,3,2.8c1.4,2.1,1.1,4.4,0.1,6.5
		c0.6,0.3,1.4,0.6,1.9,0.8c0.9-2.5,2.7-4.7,5.7-4.7c0.8,0,1.5,0.1,2.3,0.1c1.3,0.4,2.6,0.9,3.7,1.4c2.2,1.4,2.7,3.6,2.6,6
		c0.7,0,1.5,0,2.1,0c-0.2-2.6,0.7-5.3,3.4-6.6c0.7-0.3,1.4-0.5,2.2-0.8c1.4-0.1,2.7-0.1,3.9-0.1c2.5,0.5,3.9,2.3,4.7,4.5
		c0.6-0.3,1.4-0.6,1.9-0.8c-1.1-2.4-1.4-5.2,0.7-7.4c0.5-0.5,1.1-1,1.7-1.5c1.2-0.6,2.4-1.2,3.5-1.6c2.5-0.5,4.5,0.7,6.1,2.4
		C75,74,75.6,73.4,76,73c-2-1.8-3.3-4.3-2.2-7.1c0.3-0.8,0.7-1.5,1.1-2.3c0.8-1,1.8-1.9,2.6-2.7c2.1-1.4,4.4-1.1,6.5-0.1
		c0.3-0.6,0.6-1.4,0.8-1.9c-2.5-0.9-4.7-2.7-4.7-5.7c0-0.8,0.1-1.7,0.2-2.5c0.4-1.2,0.9-2.4,1.3-3.4c1.4-2.2,3.6-2.7,6-2.6
		c0-0.7,0-1.5,0-2.1C84.9,42.8,82.2,41.9,81,39.2 M79.1,40.4l-0.4,0.5c-0.7,0.7-1.8,0.5-2.8,0.4c-0.6-0.2-1.2-0.3-1.8-0.4
		c0.1,0.8,0.1,1.6,0.1,2.4c0,0,0,0,0,0c0.2,0.3,0.1,0.6,0,0.8c0,0.8,0,1.7-0.1,2.5c0.7-0.2,1.5-0.3,2.2-0.5c0.8-0.1,1.6-0.2,2.2,0.5
		c0.6,1.1,0.4,2.8,0.3,4.1c0,0.1,0,0.2,0,0.2c-0.2,0.9-0.5,1.9-1,2.7l-0.5,0.3c-0.9,0.4-1.9-0.3-2.7-0.7c-0.5-0.4-1-0.7-1.5-1.1
		c-0.2,0.8-0.5,1.5-0.8,2.3c0,0,0,0,0,0.1c0,0.4-0.1,0.6-0.4,0.7c-0.3,0.8-0.7,1.5-1.1,2.3c0.8,0.1,1.5,0.3,2.3,0.4
		c0.8,0.2,1.6,0.5,1.9,1.3c0.2,1.2-0.7,2.8-1.3,3.9c0,0,0,0.1-0.1,0.1c-0.6,0.9-1.2,1.8-2.1,2.4L71,65.6c-1,0-1.6-1-2.2-1.7
		c-0.3-0.6-0.7-1.1-1-1.7c-0.5,0.6-1,1.2-1.6,1.8c0,0,0,0.1,0,0.1c-0.1,0.4-0.4,0.5-0.7,0.5c-0.6,0.6-1.2,1.1-1.8,1.6
		c0.7,0.4,1.3,0.8,2,1.3c0.6,0.5,1.3,1,1.2,1.9c-0.3,1.1-1.5,2.1-2.5,2.9c-0.9,0.6-1.9,1.2-3.1,1.5l-0.6-0.2
		c-0.9-0.4-1.1-1.5-1.4-2.4c-0.1-0.6-0.2-1.3-0.3-1.9c-0.7,0.4-1.4,0.7-2.2,1.1c0,0,0,0.1,0,0.1c-0.3,0.3-0.6,0.3-0.8,0.2
		c-0.8,0.3-1.5,0.6-2.3,0.8c0.5,0.6,0.9,1.3,1.3,1.9c0.4,0.7,0.8,1.5,0.4,2.2c-0.7,0.9-2.2,1.4-3.4,1.7c-1.1,0.2-2.3,0.4-3.5,0.3
		l-0.5-0.4c-0.7-0.7-0.5-1.8-0.4-2.8c0.2-0.6,0.3-1.3,0.4-1.9c-0.8,0.1-1.6,0.1-2.4,0.2c0,0,0,0.1-0.1,0.1c-0.4,0.2-0.6,0.1-0.9-0.1
		c-0.8,0-1.7,0-2.5-0.1c0.2,0.8,0.3,1.5,0.5,2.3c0.1,0.8,0.2,1.6-0.5,2.2c-1,0.6-2.5,0.4-3.7,0.3c-1.2-0.2-2.4-0.5-3.5-1.1L35,76
		c-0.4-0.9,0.3-1.9,0.7-2.7c0.4-0.5,0.7-1,1.1-1.5c-0.8-0.2-1.5-0.5-2.3-0.8c0,0,0,0-0.1,0.1c-0.4,0-0.6-0.1-0.7-0.4
		c-0.8-0.3-1.5-0.7-2.2-1.1c-0.1,0.8-0.3,1.5-0.4,2.3c-0.2,0.8-0.5,1.6-1.3,1.9c-1,0.2-2.2-0.4-3.3-1c-1-0.7-2.1-1.4-2.9-2.5
		l-0.1-0.6c0-1,1-1.6,1.7-2.2c0.5-0.3,1.1-0.7,1.6-1c-0.6-0.5-1.2-1-1.8-1.6c0,0,0,0,0,0c-0.4-0.1-0.5-0.3-0.5-0.6
		c-0.6-0.6-1.2-1.2-1.7-1.9c-0.4,0.6-0.8,1.3-1.2,1.9c-0.5,0.6-1,1.3-1.9,1.2c-1.1-0.3-2-1.4-2.8-2.3c-0.7-1-1.4-2.1-1.7-3.4
		l0.2-0.6c0.4-0.9,1.5-1.1,2.4-1.4c0.6-0.1,1.2-0.2,1.8-0.3c-0.4-0.7-0.7-1.4-1.1-2.2c0,0,0,0,0,0c-0.3-0.3-0.3-0.5-0.3-0.7
		c-0.3-0.8-0.6-1.6-0.8-2.4c-0.6,0.4-1.2,0.9-1.9,1.3c-0.7,0.4-1.5,0.8-2.2,0.4c-0.8-0.6-1.3-1.9-1.6-3c-0.2-1.2-0.5-2.6-0.3-4
		l0.4-0.5c0.7-0.7,1.8-0.5,2.8-0.4c0.6,0.1,1.2,0.3,1.8,0.4c-0.1-0.8-0.1-1.6-0.1-2.4c0,0,0,0,0,0c-0.2-0.3-0.1-0.6,0-0.8
		c0-0.8,0.1-1.7,0.1-2.5c-0.7,0.2-1.5,0.3-2.2,0.5c-0.8,0.1-1.6,0.2-2.2-0.5c-0.6-1.1-0.4-2.7-0.3-4c0.2-1.1,0.5-2.2,1.1-3.1
		l0.5-0.3c0.9-0.4,1.9,0.3,2.7,0.7c0.5,0.4,1.1,0.8,1.6,1.1c0.2-0.8,0.5-1.5,0.8-2.3c0,0-0.1-0.1-0.1-0.1c0-0.4,0.2-0.7,0.5-0.8
		c0.3-0.8,0.7-1.5,1.1-2.2c-0.8-0.1-1.6-0.3-2.3-0.4c-0.8-0.2-1.6-0.5-1.9-1.3c-0.1-1,0.4-2.1,0.9-3.1c0.7-1,1.4-2.2,2.5-3l0.6-0.1
		c1,0,1.6,1,2.2,1.7c0.3,0.6,0.7,1.1,1,1.6c0.5-0.6,1-1.2,1.6-1.8c0,0,0-0.1,0-0.1c0.1-0.4,0.4-0.5,0.7-0.5c0.6-0.6,1.2-1.1,1.8-1.7
		c-0.7-0.4-1.3-0.8-2-1.3c-0.6-0.5-1.3-1-1.2-1.9c0.3-1.1,1.4-2,2.3-2.8c1-0.7,2.1-1.4,3.4-1.8l0.6,0.2c0.9,0.4,1.1,1.5,1.4,2.4
		c0.1,0.6,0.2,1.3,0.3,1.9c0.7-0.4,1.4-0.7,2.2-1c0,0,0-0.1,0-0.1c0.3-0.3,0.6-0.3,0.8-0.2c0.8-0.3,1.5-0.6,2.3-0.8
		c-0.5-0.6-0.9-1.3-1.3-1.9c-0.4-0.7-0.8-1.5-0.4-2.2c0.6-0.8,1.8-1.3,2.9-1.6c1.3-0.2,2.6-0.5,4-0.3l0.5,0.4
		c0.7,0.7,0.5,1.8,0.4,2.8c-0.2,0.6-0.3,1.2-0.4,1.9c0.8-0.1,1.6-0.1,2.4-0.1c0,0,0-0.1,0.1-0.1c0.4-0.2,0.6-0.1,0.9,0.1
		c0.8,0,1.7,0.1,2.5,0.1c-0.2-0.8-0.4-1.5-0.5-2.3c-0.1-0.8-0.2-1.6,0.5-2.2c1.1-0.6,2.8-0.4,4.1-0.3c0.3,0,0.5,0.1,0.8,0.1
		c0.8,0.2,1.5,0.4,2.2,0.8l0.3,0.5c0.4,0.9-0.3,1.9-0.7,2.7c-0.4,0.6-0.8,1.1-1.2,1.7c0.8,0.2,1.5,0.5,2.2,0.8
		c0.1-0.1,0.1-0.1,0.2-0.2c0.5,0,0.7,0.2,0.8,0.6c0.7,0.3,1.4,0.7,2.1,1c0.1-0.8,0.3-1.6,0.4-2.4c0.2-0.8,0.5-1.6,1.3-1.9
		c0.9-0.1,2,0.3,2.9,0.8c1.1,0.8,2.4,1.5,3.3,2.7l0.1,0.6c0,1-1,1.6-1.7,2.2c-0.6,0.3-1.1,0.7-1.7,1c0.6,0.5,1.2,1,1.8,1.6
		c0,0,0.1,0,0.1,0c0.4,0.2,0.5,0.4,0.5,0.7c0.6,0.6,1.1,1.2,1.6,1.8c0.4-0.7,0.8-1.3,1.3-2c0.5-0.6,1-1.3,1.9-1.2
		c1,0.2,1.9,1.2,2.6,2.1c0.7,1.1,1.5,2.2,1.9,3.6l-0.2,0.6c-0.4,0.9-1.5,1.1-2.4,1.4c-0.6,0.1-1.2,0.2-1.9,0.3
		c0.4,0.7,0.7,1.4,1.1,2.2c0,0,0,0,0.1,0c0.3,0.3,0.3,0.5,0.3,0.8c0.3,0.8,0.6,1.6,0.8,2.4c0.6-0.4,1.2-0.9,1.9-1.3
		c0.7-0.4,1.5-0.8,2.2-0.4c0.9,0.7,1.4,2.2,1.7,3.4C79.1,38,79.3,39.2,79.1,40.4"/>
</g>
</svg>
