<svg id="Layer_1" data-name="Layer 1" xmlns="http://www.w3.org/2000/svg" viewBox="0 0 200.2 50.04"><defs><style>.cls-1{fill:#fff;}</style></defs><title>logo-white-sbir-sttr</title><path class="cls-1" d="M60.5,47.4a1.83,1.83,0,0,0,1.8.9,0.9,0.9,0,0,0,1.1-.8c0-.5-0.2-0.7-0.9-0.8a8.08,8.08,0,0,1-2.2-.7,2,2,0,0,1-1-2c0-1.7,1-2.6,3-2.6a3.12,3.12,0,0,1,3,1.5l-1.6,1a1.72,1.72,0,0,0-1.4-.8,0.75,0.75,0,0,0-.9.7c0,0.4.3,0.8,1.5,1.1a6.36,6.36,0,0,1,1.8.6,2.32,2.32,0,0,1,.9,1.9,2.28,2.28,0,0,1-.7,1.9,4.2,4.2,0,0,1-2.4.7,5.42,5.42,0,0,1-2.5-.6,2.19,2.19,0,0,1-.9-1Z" transform="translate(-0.1 0.04)"/><path class="cls-1" d="M67.7,41.4h3.4a3.14,3.14,0,0,1,2.1.5,2.57,2.57,0,0,1,.7,1.8,2.24,2.24,0,0,1-.6,1.7,2.46,2.46,0,0,1-2,4.4H67.7V41.4Zm3.2,3.3a0.8,0.8,0,1,0,0-1.6H69.7v1.7h1.2V44.7Zm0.2,3.5c0.6,0,.8-0.2.8-0.9s-0.2-.9-0.8-0.9H69.8v1.8h1.3Z" transform="translate(-0.1 0.04)"/><path class="cls-1" d="M76.4,41.4h2.1v8.5H76.4V41.4Z" transform="translate(-0.1 0.04)"/><path class="cls-1" d="M83.5,49.9H81.4V41.4h3.3a2.89,2.89,0,0,1,2.2.6,2.21,2.21,0,0,1,.6,1.9c0,1.5-.4,2.1-1.5,2.5l1.8,3.4H85.5L84,46.5H83.4Zm1-4.9a0.83,0.83,0,0,0,1-1c0-.8-0.2-1-1-1h-1v2h1Z" transform="translate(-0.1 0.04)"/><path class="cls-1" d="M90,48h2.1v1.8H90V48Z" transform="translate(-0.1 0.04)"/><path class="cls-1" d="M95.6,47.4a1.83,1.83,0,0,0,1.8.9,0.9,0.9,0,0,0,1.1-.8c0-.5-0.2-0.7-0.9-0.8a8.08,8.08,0,0,1-2.2-.7,2,2,0,0,1-1-2c0-1.7,1-2.6,3-2.6a3.12,3.12,0,0,1,3,1.5l-1.6,1a1.72,1.72,0,0,0-1.4-.8,0.75,0.75,0,0,0-.9.7c0,0.4.3,0.8,1.5,1.1a6.36,6.36,0,0,1,1.8.6,2.32,2.32,0,0,1,.9,1.9,2.28,2.28,0,0,1-.7,1.9,4.2,4.2,0,0,1-2.4.7,5.42,5.42,0,0,1-2.5-.6,2.19,2.19,0,0,1-.9-1Z" transform="translate(-0.1 0.04)"/><path class="cls-1" d="M104.6,43.1h-2.2V41.4h6.5v1.7h-2.2v6.8h-2.1V43.1Z" transform="translate(-0.1 0.04)"/><path class="cls-1" d="M113,43.1h-2.2V41.4h6.5v1.7h-2.2v6.8H113V43.1Z" transform="translate(-0.1 0.04)"/><path class="cls-1" d="M121.7,49.9h-2.1V41.4h3.3a2.89,2.89,0,0,1,2.2.6,2.21,2.21,0,0,1,.6,1.9c0,1.5-.4,2.1-1.5,2.5l1.8,3.4h-2.3l-1.5-3.3h-0.6Zm1-4.9a0.83,0.83,0,0,0,1-1c0-.8-0.2-1-1-1h-1v2h1Z" transform="translate(-0.1 0.04)"/><path class="cls-1" d="M62.6,11.2a10.41,10.41,0,0,0-.6,1.6,0.34,0.34,0,0,1-.4.2H58.5c-0.1,0-.2-0.1-0.1-0.3C60.3,8.6,63,3.1,64.7,0a0.55,0.55,0,0,1,.4,0c1.8,3.5,4.3,8.6,6.3,12.7,0.1,0.2.1,0.3-.1,0.3H67.8c-0.1,0-.2,0-0.2-0.1-0.2-.5-0.5-1.2-0.7-1.6Zm3.5-2.4L64.7,6,63.4,8.8h2.7Z" transform="translate(-0.1 0.04)"/><path class="cls-1" d="M81.2,5.2A2.71,2.71,0,0,1,84,3.4c1.5,0,2.9.6,2.9,3v6.4c0,0.2,0,.3-0.2.3H83.9a0.16,0.16,0,0,1-.2-0.2V7.5A1.25,1.25,0,0,0,82.5,6a1.44,1.44,0,0,0-1.3.8v5.9c0,0.2,0,.3-0.2.3H78.3a0.16,0.16,0,0,1-.2-0.2V7.5A1.26,1.26,0,0,0,76.9,6a1.56,1.56,0,0,0-1.3.8v5.9c0,0.2,0,.2-0.1.2H72.6c-0.1,0-.1,0-0.1-0.3V3.9c0-.2,0-0.2.1-0.2h2.8a0.16,0.16,0,0,1,.2.2V5.2a2.83,2.83,0,0,1,2.8-1.8C79.9,3.4,80.8,3.9,81.2,5.2Z" transform="translate(-0.1 0.04)"/><path class="cls-1" d="M97.7,7.7A6.15,6.15,0,0,1,97.6,9c0,0.2-.1.2-0.4,0.2H91.7a1.63,1.63,0,0,0,1.8,1.6h0.1a2.43,2.43,0,0,0,1.8-.9c0.1-.1.2,0,0.3,0.1,0.4,0.5.9,1.3,1.3,1.9,0.1,0.2.1,0.3-.1,0.4a5.46,5.46,0,0,1-3.3,1.1,4.7,4.7,0,0,1-4.9-5,4.74,4.74,0,0,1,4.4-4.9h0.5a4.1,4.1,0,0,1,4.2,3.9A0.37,0.37,0,0,0,97.7,7.7Zm-2.9-.2a1.62,1.62,0,0,0-1.4-1.6H93.3a1.58,1.58,0,0,0-1.6,1.6h3.1Z" transform="translate(-0.1 0.04)"/><path class="cls-1" d="M102.2,7.1v5.7c0,0.2,0,.2-0.1.2H99.2c-0.1,0-.1,0-0.1-0.3V3.9c0-.2,0-0.2.1-0.2H102c0.1,0,.1,0,0.1.2V4.8a2.4,2.4,0,0,1,2.2-1.4,2.23,2.23,0,0,1,2.4,2V5.7c-0.4.4-1.7,1.8-1.9,2a0.75,0.75,0,0,1-.5.1,1.1,1.1,0,0,0-1-1.3A1,1,0,0,0,102.2,7.1Z" transform="translate(-0.1 0.04)"/><path class="cls-1" d="M111.1,2.4c0,0.2,0,.2-0.2.2h-2.8c-0.1,0-.1-0.1-0.1-0.2v-2c0-.1,0-0.2.1-0.2h2.8a0.16,0.16,0,0,1,.2.2v2Zm0,10.4c0,0.2,0,.2-0.2.2h-2.8c-0.1,0-.1,0-0.1-0.3V3.9c0-.2,0-0.2.1-0.2h2.8a0.16,0.16,0,0,1,.2.2v8.9Z" transform="translate(-0.1 0.04)"/><path class="cls-1" d="M122,10.3c0.1,0.1.2,0.2,0.1,0.3h0a4.51,4.51,0,0,1-4.4,2.7,4.7,4.7,0,0,1-5-4.9,4.88,4.88,0,0,1,4.5-5.1h0.4A4.37,4.37,0,0,1,122,6.1c0.1,0.1,0,.2-0.1.3l-2.4,1c-0.1,0-.1,0-0.1-0.1a1.93,1.93,0,0,0-2.7-.5,2.2,2.2,0,0,0-.9,1.6,1.81,1.81,0,0,0,1.8,1.9h0.2a1.7,1.7,0,0,0,1.6-.9c0.1-.1.1-0.2,0.3-0.1Z" transform="translate(-0.1 0.04)"/><path class="cls-1" d="M129.8,11.7a2.61,2.61,0,0,1-2.6,1.5c-2.5,0-4.4-1.8-4.4-4.8a4.54,4.54,0,0,1,4.4-4.8,2.75,2.75,0,0,1,2.5,1.5V3.9c0-.2,0-0.2.1-0.2h2.9c0.1,0,.1.1,0.1,0.2v8.9a0.44,0.44,0,0,1-.1.3h-2.6c-0.1,0-.2,0-0.2-0.1h0Zm-3.9-3.2a1.9,1.9,0,1,0,3.8,0A1.74,1.74,0,0,0,128,6.6h-0.2a1.88,1.88,0,0,0-1.9,1.8V8.5Z" transform="translate(-0.1 0.04)"/><path class="cls-1" d="M135.6,5.6a0.62,0.62,0,0,1-.5.1c-0.3,0-.5-0.1-0.5-0.3V0.6c0-.2.1-0.2,0.1-0.2h3.4a0.45,0.45,0,0,1,0,.5C137.2,2.8,136.6,3.8,135.6,5.6Z" transform="translate(-0.1 0.04)"/><path class="cls-1" d="M137.6,10.9l2-.8a0.2,0.2,0,0,1,.2.1,1.64,1.64,0,0,0,1.5,1c0.8,0,1.2-.3,1.2-0.7s-0.4-.7-1.8-1.1c-1.8-.4-3-1.1-3-2.9s1.6-3.1,4.2-3.1c2.1,0,3.3.8,3.6,2a0.37,0.37,0,0,1-.1.3l-2.1.7c-0.1.1-.1,0.1-0.2-0.1a1.6,1.6,0,0,0-1.4-.8c-0.7,0-1,.2-1,0.6s0.4,0.6,2,.9c1.9,0.4,3.1,1.2,3.1,2.9,0,2.1-1.6,3.4-4.3,3.4-2.4,0-3.5-.9-4.1-2.2A0.38,0.38,0,0,0,137.6,10.9Z" transform="translate(-0.1 0.04)"/><path class="cls-1" d="M67.3,24.8a3.44,3.44,0,0,0-.9-0.1c-2.5-.4-3.5-0.9-3.5-2.2,0-1,.6-1.7,2.5-1.7A3.34,3.34,0,0,1,68.5,23c0.1,0.1.1,0.2,0.3,0.1L72,21.8a0.34,0.34,0,0,0,.2-0.5c-0.7-2.3-2.9-4-6.6-4-4.8,0-7.3,2.5-7.3,6s2.3,5.2,5.6,5.6L64.6,29c2.5,0.3,3.3,1,3.3,2.1,0,1.3-.9,1.8-2.7,1.8a3.56,3.56,0,0,1-3.3-2.2c-0.1-.2-0.1-0.2-0.3-0.1L58.3,32c-0.2.1-.2,0.2-0.1,0.5,0.9,2.7,3.2,4.2,7,4.2,4.3,0,7.7-1.9,7.7-6.1C72.8,27.2,70.9,25.3,67.3,24.8Z" transform="translate(-0.1 0.04)"/><path class="cls-1" d="M88.2,32l-8,.1V28.9h7.6c0.2,0,.3-0.1.3-0.4V25.1c0-.3,0-0.4-0.3-0.4H80.2V21.6L88,21.7c0.2,0,.3-0.1.3-0.4V18c0-.3,0-0.4-0.3-0.4H75.7c-0.3,0-.2,0-0.2.3V35.7c0,0.3,0,.4.3,0.4H88.3c0.3,0,.3-0.1.3-0.4V32.2C88.5,32,88.5,32,88.2,32Z" transform="translate(-0.1 0.04)"/><path class="cls-1" d="M105.2,32l-8,.1V28.9h7.6c0.2,0,.3-0.1.3-0.4V25.1c0-.3,0-0.4-0.3-0.4H97.3V21.6l7.8,0.1c0.2,0,.3-0.1.3-0.4V18c0-.3,0-0.4-0.3-0.4H92.8c-0.3,0-.2,0-0.2.3V35.7c0,0.3,0,.4.3,0.4h12.5c0.3,0,.3-0.1.3-0.4V32.2C105.6,32,105.6,32,105.2,32Z" transform="translate(-0.1 0.04)"/><path class="cls-1" d="M117,17.7h-7.6c-0.2,0-.2.1-0.2,0.3V36c0,0.3,0,.2.2,0.2h7c5.4,0,9-3.3,9-9.2S122.2,17.7,117,17.7Zm-0.5,14.6H114V21.6h2.6c2.4,0,3.7,2.3,3.7,5.3-0.1,3.2-1.1,5.4-3.8,5.4h0Z" transform="translate(-0.1 0.04)"/><path class="cls-1" d="M146.1,17.7h-12c-0.2,0-.2,0-0.2.4V35.8c0,0.4.1,0.4,0.2,0.4h4.4c0.2,0,.2-0.1.2-0.4v-6l6.4,0.1a0.35,0.35,0,0,0,.4-0.3,22.85,22.85,0,0,0,0-3.7c0-.2-0.1-0.3-0.4-0.3l-6.5.1V22l7.3,0.1c0.2,0,.2,0,0.2-0.3a22.85,22.85,0,0,0,0-3.7C146.3,17.8,146.3,17.7,146.1,17.7Z" transform="translate(-0.1 0.04)"/><path class="cls-1" d="M164.2,17.7h-4.5c-0.2,0-.2,0-0.2.2V30.1a2.64,2.64,0,0,1-2.9,2.6,2.7,2.7,0,0,1-2.9-2.6V18c0-.2,0-0.2-0.2-0.2h-4.6c-0.1,0-.1,0-0.1.2V29.3c0,4.5,2.5,7.4,7.7,7.4,5.4,0,7.7-2.8,7.7-7.2V17.9C164.3,17.7,164.3,17.7,164.2,17.7Z" transform="translate(-0.1 0.04)"/><path class="cls-1" d="M191.9,17.7h-7.6c-0.2,0-.2.1-0.2,0.3V36c0,0.3,0,.2.2,0.2h7c5.4,0,9-3.3,9-9.2S197.2,17.7,191.9,17.7Zm-0.5,14.6h-2.5V21.6h2.6c2.4,0,3.7,2.3,3.7,5.3,0,3.2-1,5.4-3.8,5.4h0Z" transform="translate(-0.1 0.04)"/><path class="cls-1" d="M180.7,16.5c-2-1.7-3-2.4-4.6-3.6-0.2-.1-0.4-0.1-0.4.2V29.8c1.9,1.7,2.8,2.4,4.5,3.7,0.4,0.3.4,0.1,0.4-.4C180.7,26.9,180.7,16.5,180.7,16.5Z" transform="translate(-0.1 0.04)"/><path class="cls-1" d="M172.5,36.2V26.9c-2-1.7-3-2.4-4.6-3.6-0.2-.1-0.4-0.1-0.4.2V36.2h5Z" transform="translate(-0.1 0.04)"/><rect class="cls-1" x="45.8" y="0.04" width="1" height="36.2"/><path class="cls-1" d="M6.9,22C7.6,21.9,8,21.8,8,21V15.2a2.25,2.25,0,0,0-1-.9V14H9.6l4.3,5.2h0V15.5a1,1,0,0,0-1.1-1.2V14h2.6v0.3c-0.9.1-1,.4-1,1v7.2H14.1L8.6,15.9h0v4.9c0,0.9.3,1.1,1.2,1.2v0.3H7.1V22H6.9Z" transform="translate(-0.1 0.04)"/><path class="cls-1" d="M6.9,22C7.6,21.9,8,21.8,8,21V15.2a2.25,2.25,0,0,0-1-.9V14H9.6l4.3,5.2h0V15.5a1,1,0,0,0-1.1-1.2V14h2.6v0.3c-0.9.1-1,.4-1,1v7.2H14.1L8.6,15.9h0v4.9c0,0.9.3,1.1,1.2,1.2v0.3H7.1V22H6.9Z" transform="translate(-0.1 0.04)"/><path class="cls-1" d="M21.1,16.5a2.76,2.76,0,0,0-2.4-2.3,1.3,1.3,0,0,0-1.3,1.1v0.1c0,0.7.2,0.9,1.3,1.4l1.8,0.9A2.36,2.36,0,0,1,21.8,20a2.69,2.69,0,0,1-3,2.6,17,17,0,0,1-2.2-.4c-0.3,0-.3.2-0.4,0.4H15.8v-3h0.5c0.2,1.2,1,2.6,2.5,2.6A1.5,1.5,0,0,0,20.4,21V20.8c0-.8-0.6-1.1-1.4-1.5l-0.8-.4c-2.1-1-2.1-2.1-2.1-2.6,0-.8.4-2.4,2.7-2.4a12.86,12.86,0,0,1,1.9.4c0.3,0,.3-0.2.4-0.4h0.4v2.6H21.1Z" transform="translate(-0.1 0.04)"/><path class="cls-1" d="M21.1,16.5a2.76,2.76,0,0,0-2.4-2.3,1.3,1.3,0,0,0-1.3,1.1v0.1c0,0.7.2,0.9,1.3,1.4l1.8,0.9A2.36,2.36,0,0,1,21.8,20a2.69,2.69,0,0,1-3,2.6,17,17,0,0,1-2.2-.4c-0.3,0-.3.2-0.4,0.4H15.8v-3h0.5c0.2,1.2,1,2.6,2.5,2.6A1.5,1.5,0,0,0,20.4,21V20.8c0-.8-0.6-1.1-1.4-1.5l-0.8-.4c-2.1-1-2.1-2.1-2.1-2.6,0-.8.4-2.4,2.7-2.4a12.86,12.86,0,0,1,1.9.4c0.3,0,.3-0.2.4-0.4h0.4v2.6H21.1Z" transform="translate(-0.1 0.04)"/><path class="cls-1" d="M22.5,14h6.9v2.4H29.1c-0.3-1.3-.6-2-2.7-2-0.7,0-.9,0-0.9.6v2.8c1.5,0,1.7-.8,1.9-1.8h0.3v4.1H27.4c-0.1-1-.3-1.9-1.9-1.9v2.9c0,0.8.5,0.8,1.3,0.9v0.3H22.4V22c0.7-.1,1.1-0.1,1.1-0.9v-6c0-.8-0.5-0.8-1.1-0.9V14h0.1Z" transform="translate(-0.1 0.04)"/><path class="cls-1" d="M22.5,14h6.9v2.4H29.1c-0.3-1.3-.6-2-2.7-2-0.7,0-.9,0-0.9.6v2.8c1.5,0,1.7-.8,1.9-1.8h0.3v4.1H27.4c-0.1-1-.3-1.9-1.9-1.9v2.9c0,0.8.5,0.8,1.3,0.9v0.3H22.4V22c0.7-.1,1.1-0.1,1.1-0.9v-6c0-.8-0.5-0.8-1.1-0.9V14h0.1Z" transform="translate(-0.1 0.04)"/><path class="cls-1" d="M18.2,5.5A12.65,12.65,0,1,0,30.8,18.2h0A12.63,12.63,0,0,0,18.2,5.5m0,25.1A12.4,12.4,0,1,1,30.6,18.2v0.1A12.51,12.51,0,0,1,18.2,30.6" transform="translate(-0.1 0.04)"/><path class="cls-1" d="M18.2,5.5A12.65,12.65,0,1,0,30.8,18.2h0A12.63,12.63,0,0,0,18.2,5.5Zm0,25.1A12.4,12.4,0,1,1,30.6,18.2v0.1A12.51,12.51,0,0,1,18.2,30.6Z" transform="translate(-0.1 0.04)"/><path class="cls-1" d="M33.4,16.2l-0.3-.9V13.6a2.75,2.75,0,0,1,1.9-2,6.89,6.89,0,0,0-.3-0.8,2.55,2.55,0,0,1-3.1-.3L31,9.9a11.11,11.11,0,0,1-.7-1.6,2.6,2.6,0,0,1,1-2.6L30.6,5a2.66,2.66,0,0,1-3,.9l-0.7-.3a16.61,16.61,0,0,1-1.4-1.3,2.58,2.58,0,0,1-.1-2.8l-0.8-.3a2.78,2.78,0,0,1-2.4,2A4.87,4.87,0,0,1,21,3.1c-0.5-.2-0.9-0.3-1.4-0.5A2.81,2.81,0,0,1,18.5.1H17.6a2.43,2.43,0,0,1-1.3,2.8c-0.3.1-.5,0.2-0.8,0.3a10.87,10.87,0,0,1-1.8.1,2.75,2.75,0,0,1-2-1.9l-0.8.3a2.55,2.55,0,0,1-.3,3.1,4.35,4.35,0,0,0-.7.6,7.74,7.74,0,0,1-1.6.7,2.6,2.6,0,0,1-2.6-1l-0.6.6a2.66,2.66,0,0,1,.9,3c-0.1.2-.2,0.5-0.3,0.7a15.38,15.38,0,0,1-1.2,1.3,2.8,2.8,0,0,1-2.8.1l-0.4.9a2.78,2.78,0,0,1,2,2.4,3.4,3.4,0,0,1-.1,1L2.6,16.6A2.81,2.81,0,0,1,.1,17.7v0.9a2.62,2.62,0,0,1,2.8,1.5c0.1,0.3.2,0.5,0.3,0.8a10.87,10.87,0,0,1,.1,1.8,2.75,2.75,0,0,1-1.9,2l0.3,0.8a2.55,2.55,0,0,1,3.1.3c0.2,0.2.4,0.5,0.6,0.7a7.74,7.74,0,0,1,.7,1.6,2.6,2.6,0,0,1-1,2.6l0.6,0.6a2.66,2.66,0,0,1,3-.9,3,3,0,0,1,.8.4c0.4,0.4.9,0.8,1.3,1.2a2.8,2.8,0,0,1,.1,2.8l0.8,0.3a2.78,2.78,0,0,1,2.4-2,3.75,3.75,0,0,1,1,.1c0.5,0.2,1.1.4,1.6,0.6a2.81,2.81,0,0,1,1.1,2.5h0.9a2.62,2.62,0,0,1,1.5-2.8l0.9-.3a9.63,9.63,0,0,1,1.7,0,2.75,2.75,0,0,1,2,1.9l0.8-.3a2.55,2.55,0,0,1,.3-3.1c0.2-.2.5-0.4,0.7-0.6a10.09,10.09,0,0,1,1.5-.7,2.6,2.6,0,0,1,2.6,1l0.6-.6a2.66,2.66,0,0,1-.9-3,9.25,9.25,0,0,1,.5-1A12,12,0,0,1,32,25.6a2.8,2.8,0,0,1,2.8-.1l0.3-.8a2.78,2.78,0,0,1-2-2.4,4.1,4.1,0,0,1,.1-1.1,5.91,5.91,0,0,1,.6-1.4,2.67,2.67,0,0,1,2.6-1.1V17.8a3.29,3.29,0,0,1-3-1.6m-0.8.5-0.1.2a1.64,1.64,0,0,1-1.2.2l-0.8-.2c0,0.3.1,0.7,0.1,1h0a0.19,0.19,0,0,1,0,.3,4.1,4.1,0,0,1-.1,1.1c0.3-.1.6-0.1,0.9-0.2a1,1,0,0,1,.9.2,3.34,3.34,0,0,1,.1,1.7v0.1a5.64,5.64,0,0,1-.4,1.2l-0.2.1a1.38,1.38,0,0,1-1.2-.3l-0.7-.5c-0.1.3-.2,0.7-0.3,1h0a0.24,0.24,0,0,1-.2.3,10.37,10.37,0,0,1-.4,1,4.4,4.4,0,0,1,1,.2,1.13,1.13,0,0,1,.8.5,3.37,3.37,0,0,1-.5,1.7h0a4.5,4.5,0,0,1-.9,1H29.1a1.69,1.69,0,0,1-1-.7L27.8,26a5,5,0,0,1-.7.8v0.1a0.34,0.34,0,0,1-.3.2c-0.3.2-.5,0.5-0.8,0.7a9.22,9.22,0,0,0,.8.5,1,1,0,0,1,.5.8,2.94,2.94,0,0,1-1,1.2A5.39,5.39,0,0,1,25,31l-0.2-.1a1.33,1.33,0,0,1-.6-1,2.49,2.49,0,0,1-.1-0.8,3.55,3.55,0,0,1-.9.4h0a0.3,0.3,0,0,1-.4.1,4.18,4.18,0,0,0-1,.4c0.2,0.3.4,0.5,0.6,0.8a1,1,0,0,1,.2.9,2.85,2.85,0,0,1-1.4.8,3.81,3.81,0,0,1-1.5.1l-0.2-.1a1.64,1.64,0,0,1-.2-1.2c0.1-.3.1-0.5,0.2-0.8h-1a0.3,0.3,0,0,1-.4,0,4.1,4.1,0,0,1-1.1-.1c0.1,0.3.1,0.6,0.2,1a1,1,0,0,1-.2.9,2.86,2.86,0,0,1-1.6.1,4.42,4.42,0,0,1-1.5-.5l-0.1-.2a1.38,1.38,0,0,1,.3-1.2l0.5-.7c-0.3-.1-0.7-0.2-1-0.3h0a0.24,0.24,0,0,1-.3-0.2,9.25,9.25,0,0,1-1-.5,4.4,4.4,0,0,1-.2,1,1.13,1.13,0,0,1-.5.8,2.3,2.3,0,0,1-1.4-.4,4.49,4.49,0,0,1-1.3-1.1V28.9a1.69,1.69,0,0,1,.7-1l0.6-.4a5,5,0,0,1-.8-0.7h0a0.25,0.25,0,0,1-.2-0.3,5,5,0,0,1-.7-0.8c-0.2.3-.3,0.5-0.5,0.8a0.89,0.89,0,0,1-.8.5A2.34,2.34,0,0,1,6,26a3.69,3.69,0,0,1-.7-1.4l0.1-.2a1.33,1.33,0,0,1,1-.6L7.3,24a3.55,3.55,0,0,1-.4-0.9h0a0.37,0.37,0,0,1-.1-0.3c-0.1-.3-0.3-0.7-0.4-1a3.51,3.51,0,0,1-.8.5,1,1,0,0,1-.9.2A2.73,2.73,0,0,1,4,21.2a4.4,4.4,0,0,1-.2-1.6l0.1-.2a1.64,1.64,0,0,1,1.2-.2l0.8,0.2a3.4,3.4,0,0,0-.1-1h0a0.19,0.19,0,0,1,0-.3A4.1,4.1,0,0,1,5.9,17c-0.3.1-.6,0.1-1,0.2A1,1,0,0,1,4,17a3.22,3.22,0,0,1-.1-1.7A3,3,0,0,1,4.4,14l0.2-.1a1.38,1.38,0,0,1,1.2.3l0.7,0.5c0.1-.3.2-0.6,0.3-1h0A0.34,0.34,0,0,1,7,13.4a4.05,4.05,0,0,1,.5-0.9,3.55,3.55,0,0,1-1-.2,1.13,1.13,0,0,1-.8-0.5,2,2,0,0,1,.4-1.3A6.89,6.89,0,0,1,7.2,9.2H7.4a1.27,1.27,0,0,1,.9.7l0.4,0.7a5,5,0,0,1,.7-0.8h0a0.25,0.25,0,0,1,.3-0.2c0.3-.2.5-0.5,0.8-0.7a9.22,9.22,0,0,0-.8-0.5,0.89,0.89,0,0,1-.5-0.8,2.34,2.34,0,0,1,1-1.2,6.38,6.38,0,0,1,1.4-.8l0.2,0.1a1.33,1.33,0,0,1,.6,1,0.83,0.83,0,0,0,0,.5,3.55,3.55,0,0,1,.9-0.4h0a0.3,0.3,0,0,1,.4-0.1c0.3-.1.7-0.2,1-0.3a7,7,0,0,0-.6-0.9,1,1,0,0,1-.2-0.9,2.4,2.4,0,0,1,1.2-.7,4.88,4.88,0,0,1,1.7-.1L17,3.9A1.07,1.07,0,0,1,17.1,5c-0.1.3-.1,0.5-0.2,0.8a3.4,3.4,0,0,0,1-.1h0a0.3,0.3,0,0,1,.4,0,4.1,4.1,0,0,1,1.1.1c-0.1-.3-0.1-0.6-0.2-1a1,1,0,0,1,.2-0.9,3.34,3.34,0,0,1,1.7-.1h0.3a2.47,2.47,0,0,1,.9.4l0.1,0.2a1.38,1.38,0,0,1-.3,1.2l-0.5.7,0.9,0.3,0.1-.1a0.52,0.52,0,0,1,.4.2c0.3,0.1.6,0.3,0.9,0.4a3.55,3.55,0,0,1,.2-1,1.13,1.13,0,0,1,.5-0.8,2.38,2.38,0,0,1,1.2.3,5.26,5.26,0,0,1,1.4,1.2V7a1.69,1.69,0,0,1-.7,1l-0.7.4a5,5,0,0,1,.8.7h0.1a0.34,0.34,0,0,1,.2.3,5.72,5.72,0,0,1,.7.8,9.22,9.22,0,0,0,.5-0.8,0.89,0.89,0,0,1,.8-0.5,3.13,3.13,0,0,1,1.1.9,10.93,10.93,0,0,1,.8,1.5l-0.1.2a1.33,1.33,0,0,1-1,.6l-0.8.1c0.2,0.3.3,0.6,0.5,0.9h0a0.37,0.37,0,0,1,.1.3c0.1,0.3.3,0.7,0.4,1a3.51,3.51,0,0,1,.8-0.5,1,1,0,0,1,.9-0.2,2.67,2.67,0,0,1,.7,1.4,3.23,3.23,0,0,1,.3,1.6" transform="translate(-0.1 0.04)"/></svg>