<svg id="Layer_1" data-name="Layer 1" xmlns="http://www.w3.org/2000/svg" viewBox="0 0 192.53 192"><title>nsf-logo-k</title><path d="M67.14,75.31C72.45,75.85,73,78,73,81.68V101.3L50.17,73.72H36.38v1.59c0.53,0,1.59.53,5.3,4.77v30.76c0,4.24-2.12,4.77-5.83,5.3h1.06v1.59H51.23v-1.59c-4.77-.53-6.36-1.59-6.36-6.36v-26l29.17,35h1.59V80.62c0-3.18.53-4.77,5.3-5.3V73.72H67.14v1.59Z" transform="translate(0.22)"/><path d="M108,93.35l-9.55-4.77c-5.83-2.65-6.9-3.71-6.9-7.43V80.62a6.9,6.9,0,0,1,6.9-5.83c7.43,0,11.67,7.43,12.73,12.2h2.12V73.19h-2.12c-0.53,1.06-.53,2.12-2.12,2.12A68.21,68.21,0,0,0,99,73.19c-12.2,0-14.32,8.49-14.32,12.73,0,2.65,0,8.49,11.14,13.79l4.24,2.12c4.24,2.12,7.43,3.71,7.43,8v1.06c-1.06,4.24-4.77,6.9-8.49,6.36-8,0-12.2-7.43-13.26-13.79H83.05v15.91h2.12c0.53-1.06.53-2.12,2.12-2.12A89.94,89.94,0,0,0,99,119.34c11.67,0,15.91-8,15.91-13.79A12.51,12.51,0,0,0,108,93.35Z" transform="translate(0.22)"/><path d="M118.06,73.72v1.06c3.18,0.53,5.83.53,5.83,4.77v31.82c0,4.24-2.12,4.24-5.83,4.77v1.59H141.4v-1.59c-4.24-.53-6.9-0.53-6.9-4.77V96c8.49,0,9.55,4.77,10.08,10.08h1.59V84.33h-1.59c-1.06,5.3-2.12,9.55-10.08,9.55V79c0-3.18,1.06-3.18,4.77-3.18,11.14,0,12.73,3.71,14.32,10.61h1.59V73.72H118.06Z" transform="translate(0.22)"/><path d="M176.4,85.39l-1.59-4.77v-9c1.06-5.3,5.3-9,10.08-10.61a36.54,36.54,0,0,0-1.59-4.24c-5.3,3.18-12.2,2.65-16.44-1.59L163.67,52A58.93,58.93,0,0,1,160,43.49a13.81,13.81,0,0,1,5.3-13.79L161.55,26a14.1,14.1,0,0,1-15.91,4.77l-3.71-1.59a88.08,88.08,0,0,1-7.43-6.9C131.32,18,131.32,12.2,134,7.43l-4.24-1.59A14.75,14.75,0,0,1,117,16.44a25.83,25.83,0,0,1-6.36-.53c-2.65-1.06-4.77-1.59-7.43-2.65A14.89,14.89,0,0,1,97.38,0H92.6a12.89,12.89,0,0,1-6.9,14.85c-1.59.53-2.65,1.06-4.24,1.59a57.64,57.64,0,0,1-9.55.53c-5.3-1.06-9-5.3-10.61-10.08L57.07,8.49c3.18,5.3,2.65,12.2-1.59,16.44a23.07,23.07,0,0,0-3.71,3.18,41.05,41.05,0,0,1-8.49,3.71,13.81,13.81,0,0,1-13.79-5.3L26.3,29.7a14.1,14.1,0,0,1,4.77,15.91c-0.53,1.06-1.06,2.65-1.59,3.71a81.57,81.57,0,0,1-6.36,6.9,14.83,14.83,0,0,1-14.85.53L6.15,61.52A14.75,14.75,0,0,1,16.76,74.25a18,18,0,0,1-.53,5.3l-3.18,8A14.89,14.89,0,0,1-.22,93.35v4.77a13.9,13.9,0,0,1,14.85,8c0.53,1.59,1.06,2.65,1.59,4.24a57.64,57.64,0,0,1,.53,9.55c-1.06,5.3-5.3,9-10.08,10.61l1.59,4.24c5.3-3.18,12.2-2.65,16.44,1.59,1.06,1.06,2.12,2.65,3.18,3.71a41.06,41.06,0,0,1,3.71,8.49,13.81,13.81,0,0,1-5.3,13.79l3.18,3.18a14.1,14.1,0,0,1,15.91-4.77,15.88,15.88,0,0,1,4.24,2.12c2.12,2.12,4.77,4.24,6.9,6.36A14.83,14.83,0,0,1,57.07,184l4.24,1.59A14.75,14.75,0,0,1,74,175a19.9,19.9,0,0,1,5.3.53c2.65,1.06,5.83,2.12,8.49,3.18A14.89,14.89,0,0,1,93.66,192h4.77a13.9,13.9,0,0,1,8-14.85l4.77-1.59c2.65,0,5.83-.53,9,0,5.3,1.06,9,5.3,10.61,10.08L135,184c-3.18-5.3-2.65-12.2,1.59-16.44,1.06-1.06,2.65-2.12,3.71-3.18a53.53,53.53,0,0,1,8-3.71,13.81,13.81,0,0,1,13.79,5.3l3.18-3.18a14.1,14.1,0,0,1-4.77-15.91,49.07,49.07,0,0,1,2.65-5.3,63.57,63.57,0,0,1,5.83-6.36,14.83,14.83,0,0,1,14.85-.53l1.59-4.24a14.75,14.75,0,0,1-10.61-12.73,21.76,21.76,0,0,1,.53-5.83c1.06-2.65,1.59-5.3,3.18-7.43,3.18-4.24,8.49-6.9,13.79-5.83V93.88C185.42,93.88,179.05,90.7,176.4,85.39ZM152.54,46.67a16.58,16.58,0,0,1,5.83,4.77,58,58,0,0,1,4.24,8l-0.53,1.06c-1.06,2.12-3.18,2.65-5.3,3.18l-2.19.27a67.4,67.4,0,0,0-8-11.74,32,32,0,0,0,1.73-2.85C149.35,47.73,150.41,46.67,152.54,46.67Zm2.68,74.25h0c0,0.1-.07.19-0.09,0.29a64.76,64.76,0,0,1-78.47,36.4l0.07-.09c-1-.33-2.16-0.65-3.29-1s-2.39-.92-3.57-1.43a1.19,1.19,0,0,1,0-.24,49.06,49.06,0,0,1-5.3-2.65c0,0.09,0,.19,0,0.29A63.28,63.28,0,0,1,31.33,96c0.42-35.37,29.13-63.82,64.45-64.45,35.86-.64,64.45,28.59,64.45,64.45v0.52A61.82,61.82,0,0,1,155.22,120.92ZM129.73,27.58a12.6,12.6,0,0,1,6.36,1.59,27.91,27.91,0,0,1,7.43,6.36V36.6c0,2.12-2.12,3.71-3.71,5.3l-2.4,1.37a66.56,66.56,0,0,0-11.31-7.33,22.41,22.41,0,0,1,1-4.12C127.61,30.23,128.14,28.11,129.73,27.58Zm-27.58-7.43a17.71,17.71,0,0,1,9-.53h1.59c1.59,0.53,3.71,1.06,4.77,2.12l0.53,1.06c1.06,2.12-.53,4.24-1.59,6.36l-1.61,2.25a66.28,66.28,0,0,0-13-2.5c-0.23-1.19-.34-2.45-0.73-4A5.09,5.09,0,0,1,102.15,20.15ZM73,23.87a12.73,12.73,0,0,1,6.36-3.71c3.18-.53,5.83-1.06,9-0.53l1.06,0.53C91,21.75,90.48,23.87,90,26a27.06,27.06,0,0,0-.71,3,67.71,67.71,0,0,0-13.12,2.57c-0.69-1-1.39-1.85-2.08-2.89C73,27,72.45,25.46,73,23.87ZM53.35,33.41a33.82,33.82,0,0,1,7.43-4.24l1.06,0.53C64,30.76,64.49,32.88,65,35c0,0.26-.12.64-0.19,1.09a67.39,67.39,0,0,0-12.9,8.62c-0.45-.27-0.88-0.52-1.23-0.7C49.11,43,48,41.9,48,39.78A12.39,12.39,0,0,1,53.35,33.41ZM31.61,55.16a36.52,36.52,0,0,1,5.83-6.9H38.5c2.12,0,3.71,2.12,4.77,3.71L43.8,52.9a66.61,66.61,0,0,0-8.13,12.36c-0.68-.17-1.35-0.36-1.94-0.55-1.59-.53-3.71-1.06-4.24-2.65A10.66,10.66,0,0,1,31.61,55.16ZM19.94,80.62a15.63,15.63,0,0,1,2.65-6.9l1.06-.53c2.12-1.06,4.24.53,6.36,1.59l1.37,1a66.32,66.32,0,0,0-2.73,14.3c-1,.17-2.12.3-3.42,0.63a5.09,5.09,0,0,1-4.77-1.06A17.07,17.07,0,0,1,19.94,80.62Zm4.24,38.19a14.47,14.47,0,0,1-3.71-6.9c-1.06-2.65-1.06-5.83-1.06-8.49l0.53-1.06c1.59-1.59,4.24-1.06,6.36-1.06l2.43,0.61a67.66,67.66,0,0,0,2.92,14.29,9.67,9.67,0,0,1-2.7,1.55C27.36,118.81,25.77,119.34,24.18,118.81Zm13.26,23.87a12.39,12.39,0,0,1-6.36-5.3,19.59,19.59,0,0,1-3.71-7.43l0.53-1.06c1.06-2.12,3.18-2.65,5.3-3.18l2.61,0.58a67.4,67.4,0,0,0,7.34,11.4c-0.44.74-.87,1.46-1.46,2.34C40.62,141.61,39.56,142.67,37.44,142.67Zm23.34,19.09a12.18,12.18,0,0,1-7.43-2.12,23.8,23.8,0,0,1-6.9-5.83v-1.06c0-2.12,2.12-3.71,3.71-5.3l1.43-1a66.66,66.66,0,0,0,12.46,8.58c-0.18.75-.4,1.55-0.63,2.45C62.9,159.12,62.37,161.24,60.78,161.77Zm28.64,9a15.15,15.15,0,0,1-8.49.53,23.46,23.46,0,0,1-8-2.65l-0.53-1.06c-1.06-2.12.53-4.24,1.59-6.36l1.08-1.51a66.31,66.31,0,0,0,14.74,2.86c0.17,1,.3,2.12.63,3.42A5.09,5.09,0,0,1,89.42,170.78Zm29.7-3.18a15.12,15.12,0,0,1-7.43,4.24c-2.65.53-5.3,1.06-8,.53l-1.06-.53c-1.59-1.59-1.06-4.24-1.06-6.36a28.24,28.24,0,0,0,.72-3,67.66,67.66,0,0,0,13.34-2.76c0.79,1,1.59,1.94,2.38,3.13C119.12,164.42,119.65,166,119.12,167.6Zm19.62-7.43a28.58,28.58,0,0,1-6.9,3.71l-1.06-.53c-2.12-1.06-2.65-3.18-3.18-5.3a13.39,13.39,0,0,1-.52-3.13,67.41,67.41,0,0,0,11.06-7.35,36.26,36.26,0,0,0,3.25,2,5.06,5.06,0,0,1,2.65,4.24A15.59,15.59,0,0,1,138.75,160.18ZM160,139c-1.59,2.12-3.18,4.24-4.77,5.3H153.6c-2.12,0-3.71-2.12-5.3-3.71l-1-2a66.61,66.61,0,0,0,7.94-12c0.95,0.2,2,.49,3.15.79,1.59,0.53,3.71,1.06,4.24,2.65A17.88,17.88,0,0,1,160,139Zm11.14-28.11v0.53a29.9,29.9,0,0,1-2.12,6.36l-1.06.53c-2.12,1.06-4.24-.53-6.36-1.59l-1.81-1.29a66.32,66.32,0,0,0,2.63-13.9,27.07,27.07,0,0,0,3.43-.72,5.09,5.09,0,0,1,4.77,1.06A17.71,17.71,0,0,1,171.1,110.85Zm0.53-21.75c-1.59,1.59-4.24,1.06-6.36,1.06l-3-.74a67.63,67.63,0,0,0-3.05-14.58,10.13,10.13,0,0,1,2.84-1.65c1.59-1.06,3.18-1.59,4.77-1.06a14.14,14.14,0,0,1,3.71,7.43A17.14,17.14,0,0,1,172.16,88Z" transform="translate(0.22)"/></svg>